<mxfile host="app.diagrams.net" modified="2021-04-16T20:12:22.231Z" agent="5.0 (Windows NT 6.1; Win64; x64) AppleWebKit/537.36 (KHTML, like Gecko) Chrome/87.0.4280.141 Safari/537.36 OPR/73.0.3856.434" etag="9ZIPh-zsbUraWZzWktI3" version="14.6.1" type="github">
  <diagram id="R2lEEEUBdFMjLlhIrx00" name="Page-1">
    <mxGraphModel dx="2023" dy="684" grid="1" gridSize="10" guides="1" tooltips="1" connect="1" arrows="1" fold="1" page="1" pageScale="1" pageWidth="850" pageHeight="1100" math="0" shadow="0" extFonts="Permanent Marker^https://fonts.googleapis.com/css?family=Permanent+Marker">
      <root>
        <mxCell id="0" />
        <mxCell id="1" parent="0" />
        <mxCell id="h7852Tr2tmxZigz9Xlth-1" value="Абитуриент" style="shape=table;startSize=30;container=1;collapsible=1;childLayout=tableLayout;fixedRows=1;rowLines=0;fontStyle=1;align=center;resizeLast=1;" vertex="1" parent="1">
          <mxGeometry x="10" y="150" width="330" height="700" as="geometry" />
        </mxCell>
        <mxCell id="h7852Tr2tmxZigz9Xlth-2" value="" style="shape=partialRectangle;collapsible=0;dropTarget=0;pointerEvents=0;fillColor=none;top=0;left=0;bottom=1;right=0;points=[[0,0.5],[1,0.5]];portConstraint=eastwest;" vertex="1" parent="h7852Tr2tmxZigz9Xlth-1">
          <mxGeometry y="30" width="330" height="30" as="geometry" />
        </mxCell>
        <mxCell id="h7852Tr2tmxZigz9Xlth-3" value="PK" style="shape=partialRectangle;connectable=0;fillColor=none;top=0;left=0;bottom=0;right=0;fontStyle=1;overflow=hidden;" vertex="1" parent="h7852Tr2tmxZigz9Xlth-2">
          <mxGeometry width="30" height="30" as="geometry" />
        </mxCell>
        <mxCell id="h7852Tr2tmxZigz9Xlth-4" value="Код_абитуриента" style="shape=partialRectangle;connectable=0;fillColor=none;top=0;left=0;bottom=0;right=0;align=left;spacingLeft=6;fontStyle=5;overflow=hidden;" vertex="1" parent="h7852Tr2tmxZigz9Xlth-2">
          <mxGeometry x="30" width="300" height="30" as="geometry" />
        </mxCell>
        <mxCell id="h7852Tr2tmxZigz9Xlth-5" value="" style="shape=partialRectangle;collapsible=0;dropTarget=0;pointerEvents=0;fillColor=none;top=0;left=0;bottom=0;right=0;points=[[0,0.5],[1,0.5]];portConstraint=eastwest;" vertex="1" parent="h7852Tr2tmxZigz9Xlth-1">
          <mxGeometry y="60" width="330" height="30" as="geometry" />
        </mxCell>
        <mxCell id="h7852Tr2tmxZigz9Xlth-6" value="" style="shape=partialRectangle;connectable=0;fillColor=none;top=0;left=0;bottom=0;right=0;editable=1;overflow=hidden;" vertex="1" parent="h7852Tr2tmxZigz9Xlth-5">
          <mxGeometry width="30" height="30" as="geometry" />
        </mxCell>
        <mxCell id="h7852Tr2tmxZigz9Xlth-7" value="Фамилия" style="shape=partialRectangle;connectable=0;fillColor=none;top=0;left=0;bottom=0;right=0;align=left;spacingLeft=6;overflow=hidden;" vertex="1" parent="h7852Tr2tmxZigz9Xlth-5">
          <mxGeometry x="30" width="300" height="30" as="geometry" />
        </mxCell>
        <mxCell id="h7852Tr2tmxZigz9Xlth-8" value="" style="shape=partialRectangle;collapsible=0;dropTarget=0;pointerEvents=0;fillColor=none;top=0;left=0;bottom=0;right=0;points=[[0,0.5],[1,0.5]];portConstraint=eastwest;" vertex="1" parent="h7852Tr2tmxZigz9Xlth-1">
          <mxGeometry y="90" width="330" height="30" as="geometry" />
        </mxCell>
        <mxCell id="h7852Tr2tmxZigz9Xlth-9" value="" style="shape=partialRectangle;connectable=0;fillColor=none;top=0;left=0;bottom=0;right=0;editable=1;overflow=hidden;" vertex="1" parent="h7852Tr2tmxZigz9Xlth-8">
          <mxGeometry width="30" height="30" as="geometry" />
        </mxCell>
        <mxCell id="h7852Tr2tmxZigz9Xlth-10" value="Имя" style="shape=partialRectangle;connectable=0;fillColor=none;top=0;left=0;bottom=0;right=0;align=left;spacingLeft=6;overflow=hidden;" vertex="1" parent="h7852Tr2tmxZigz9Xlth-8">
          <mxGeometry x="30" width="300" height="30" as="geometry" />
        </mxCell>
        <mxCell id="h7852Tr2tmxZigz9Xlth-11" value="" style="shape=partialRectangle;collapsible=0;dropTarget=0;pointerEvents=0;fillColor=none;top=0;left=0;bottom=0;right=0;points=[[0,0.5],[1,0.5]];portConstraint=eastwest;" vertex="1" parent="h7852Tr2tmxZigz9Xlth-1">
          <mxGeometry y="120" width="330" height="30" as="geometry" />
        </mxCell>
        <mxCell id="h7852Tr2tmxZigz9Xlth-12" value="" style="shape=partialRectangle;connectable=0;fillColor=none;top=0;left=0;bottom=0;right=0;editable=1;overflow=hidden;" vertex="1" parent="h7852Tr2tmxZigz9Xlth-11">
          <mxGeometry width="30" height="30" as="geometry" />
        </mxCell>
        <mxCell id="h7852Tr2tmxZigz9Xlth-13" value="Отчество" style="shape=partialRectangle;connectable=0;fillColor=none;top=0;left=0;bottom=0;right=0;align=left;spacingLeft=6;overflow=hidden;" vertex="1" parent="h7852Tr2tmxZigz9Xlth-11">
          <mxGeometry x="30" width="300" height="30" as="geometry" />
        </mxCell>
        <mxCell id="h7852Tr2tmxZigz9Xlth-14" value="" style="shape=partialRectangle;collapsible=0;dropTarget=0;pointerEvents=0;fillColor=none;top=0;left=0;bottom=0;right=0;points=[[0,0.5],[1,0.5]];portConstraint=eastwest;" vertex="1" parent="h7852Tr2tmxZigz9Xlth-1">
          <mxGeometry y="150" width="330" height="30" as="geometry" />
        </mxCell>
        <mxCell id="h7852Tr2tmxZigz9Xlth-15" value="" style="shape=partialRectangle;connectable=0;fillColor=none;top=0;left=0;bottom=0;right=0;editable=1;overflow=hidden;" vertex="1" parent="h7852Tr2tmxZigz9Xlth-14">
          <mxGeometry width="30" height="30" as="geometry" />
        </mxCell>
        <mxCell id="h7852Tr2tmxZigz9Xlth-16" value="Дата_рождения" style="shape=partialRectangle;connectable=0;fillColor=none;top=0;left=0;bottom=0;right=0;align=left;spacingLeft=6;overflow=hidden;" vertex="1" parent="h7852Tr2tmxZigz9Xlth-14">
          <mxGeometry x="30" width="300" height="30" as="geometry" />
        </mxCell>
        <mxCell id="h7852Tr2tmxZigz9Xlth-30" value="" style="shape=partialRectangle;collapsible=0;dropTarget=0;pointerEvents=0;fillColor=none;top=0;left=0;bottom=0;right=0;points=[[0,0.5],[1,0.5]];portConstraint=eastwest;" vertex="1" parent="h7852Tr2tmxZigz9Xlth-1">
          <mxGeometry y="180" width="330" height="30" as="geometry" />
        </mxCell>
        <mxCell id="h7852Tr2tmxZigz9Xlth-31" value="" style="shape=partialRectangle;connectable=0;fillColor=none;top=0;left=0;bottom=0;right=0;editable=1;overflow=hidden;" vertex="1" parent="h7852Tr2tmxZigz9Xlth-30">
          <mxGeometry width="30" height="30" as="geometry" />
        </mxCell>
        <mxCell id="h7852Tr2tmxZigz9Xlth-32" value="Место_рождения" style="shape=partialRectangle;connectable=0;fillColor=none;top=0;left=0;bottom=0;right=0;align=left;spacingLeft=6;overflow=hidden;" vertex="1" parent="h7852Tr2tmxZigz9Xlth-30">
          <mxGeometry x="30" width="300" height="30" as="geometry" />
        </mxCell>
        <mxCell id="h7852Tr2tmxZigz9Xlth-34" value="" style="shape=partialRectangle;collapsible=0;dropTarget=0;pointerEvents=0;fillColor=none;top=0;left=0;bottom=0;right=0;points=[[0,0.5],[1,0.5]];portConstraint=eastwest;" vertex="1" parent="h7852Tr2tmxZigz9Xlth-1">
          <mxGeometry y="210" width="330" height="30" as="geometry" />
        </mxCell>
        <mxCell id="h7852Tr2tmxZigz9Xlth-35" value="" style="shape=partialRectangle;connectable=0;fillColor=none;top=0;left=0;bottom=0;right=0;editable=1;overflow=hidden;" vertex="1" parent="h7852Tr2tmxZigz9Xlth-34">
          <mxGeometry width="30" height="30" as="geometry" />
        </mxCell>
        <mxCell id="h7852Tr2tmxZigz9Xlth-36" value="Код_гражданства" style="shape=partialRectangle;connectable=0;fillColor=none;top=0;left=0;bottom=0;right=0;align=left;spacingLeft=6;overflow=hidden;" vertex="1" parent="h7852Tr2tmxZigz9Xlth-34">
          <mxGeometry x="30" width="300" height="30" as="geometry" />
        </mxCell>
        <mxCell id="h7852Tr2tmxZigz9Xlth-52" value="" style="shape=partialRectangle;collapsible=0;dropTarget=0;pointerEvents=0;fillColor=none;top=0;left=0;bottom=0;right=0;points=[[0,0.5],[1,0.5]];portConstraint=eastwest;" vertex="1" parent="h7852Tr2tmxZigz9Xlth-1">
          <mxGeometry y="240" width="330" height="30" as="geometry" />
        </mxCell>
        <mxCell id="h7852Tr2tmxZigz9Xlth-53" value="" style="shape=partialRectangle;connectable=0;fillColor=none;top=0;left=0;bottom=0;right=0;editable=1;overflow=hidden;" vertex="1" parent="h7852Tr2tmxZigz9Xlth-52">
          <mxGeometry width="30" height="30" as="geometry" />
        </mxCell>
        <mxCell id="h7852Tr2tmxZigz9Xlth-54" value="Серия_паспорта" style="shape=partialRectangle;connectable=0;fillColor=none;top=0;left=0;bottom=0;right=0;align=left;spacingLeft=6;overflow=hidden;" vertex="1" parent="h7852Tr2tmxZigz9Xlth-52">
          <mxGeometry x="30" width="300" height="30" as="geometry" />
        </mxCell>
        <mxCell id="h7852Tr2tmxZigz9Xlth-55" value="" style="shape=partialRectangle;collapsible=0;dropTarget=0;pointerEvents=0;fillColor=none;top=0;left=0;bottom=0;right=0;points=[[0,0.5],[1,0.5]];portConstraint=eastwest;" vertex="1" parent="h7852Tr2tmxZigz9Xlth-1">
          <mxGeometry y="270" width="330" height="30" as="geometry" />
        </mxCell>
        <mxCell id="h7852Tr2tmxZigz9Xlth-56" value="" style="shape=partialRectangle;connectable=0;fillColor=none;top=0;left=0;bottom=0;right=0;editable=1;overflow=hidden;" vertex="1" parent="h7852Tr2tmxZigz9Xlth-55">
          <mxGeometry width="30" height="30" as="geometry" />
        </mxCell>
        <mxCell id="h7852Tr2tmxZigz9Xlth-57" value="Номер_паспорта" style="shape=partialRectangle;connectable=0;fillColor=none;top=0;left=0;bottom=0;right=0;align=left;spacingLeft=6;overflow=hidden;" vertex="1" parent="h7852Tr2tmxZigz9Xlth-55">
          <mxGeometry x="30" width="300" height="30" as="geometry" />
        </mxCell>
        <mxCell id="h7852Tr2tmxZigz9Xlth-58" value="" style="shape=partialRectangle;collapsible=0;dropTarget=0;pointerEvents=0;fillColor=none;top=0;left=0;bottom=0;right=0;points=[[0,0.5],[1,0.5]];portConstraint=eastwest;" vertex="1" parent="h7852Tr2tmxZigz9Xlth-1">
          <mxGeometry y="300" width="330" height="30" as="geometry" />
        </mxCell>
        <mxCell id="h7852Tr2tmxZigz9Xlth-59" value="" style="shape=partialRectangle;connectable=0;fillColor=none;top=0;left=0;bottom=0;right=0;editable=1;overflow=hidden;" vertex="1" parent="h7852Tr2tmxZigz9Xlth-58">
          <mxGeometry width="30" height="30" as="geometry" />
        </mxCell>
        <mxCell id="h7852Tr2tmxZigz9Xlth-60" value="Дата_выдачи_паспорта" style="shape=partialRectangle;connectable=0;fillColor=none;top=0;left=0;bottom=0;right=0;align=left;spacingLeft=6;overflow=hidden;" vertex="1" parent="h7852Tr2tmxZigz9Xlth-58">
          <mxGeometry x="30" width="300" height="30" as="geometry" />
        </mxCell>
        <mxCell id="h7852Tr2tmxZigz9Xlth-61" value="" style="shape=partialRectangle;collapsible=0;dropTarget=0;pointerEvents=0;fillColor=none;top=0;left=0;bottom=0;right=0;points=[[0,0.5],[1,0.5]];portConstraint=eastwest;" vertex="1" parent="h7852Tr2tmxZigz9Xlth-1">
          <mxGeometry y="330" width="330" height="30" as="geometry" />
        </mxCell>
        <mxCell id="h7852Tr2tmxZigz9Xlth-62" value="" style="shape=partialRectangle;connectable=0;fillColor=none;top=0;left=0;bottom=0;right=0;editable=1;overflow=hidden;" vertex="1" parent="h7852Tr2tmxZigz9Xlth-61">
          <mxGeometry width="30" height="30" as="geometry" />
        </mxCell>
        <mxCell id="h7852Tr2tmxZigz9Xlth-63" value="Кем_выдан_паспорт" style="shape=partialRectangle;connectable=0;fillColor=none;top=0;left=0;bottom=0;right=0;align=left;spacingLeft=6;overflow=hidden;" vertex="1" parent="h7852Tr2tmxZigz9Xlth-61">
          <mxGeometry x="30" width="300" height="30" as="geometry" />
        </mxCell>
        <mxCell id="h7852Tr2tmxZigz9Xlth-64" value="" style="shape=partialRectangle;collapsible=0;dropTarget=0;pointerEvents=0;fillColor=none;top=0;left=0;bottom=0;right=0;points=[[0,0.5],[1,0.5]];portConstraint=eastwest;" vertex="1" parent="h7852Tr2tmxZigz9Xlth-1">
          <mxGeometry y="360" width="330" height="30" as="geometry" />
        </mxCell>
        <mxCell id="h7852Tr2tmxZigz9Xlth-65" value="" style="shape=partialRectangle;connectable=0;fillColor=none;top=0;left=0;bottom=0;right=0;editable=1;overflow=hidden;" vertex="1" parent="h7852Tr2tmxZigz9Xlth-64">
          <mxGeometry width="30" height="30" as="geometry" />
        </mxCell>
        <mxCell id="h7852Tr2tmxZigz9Xlth-66" value="Адрес_проживания" style="shape=partialRectangle;connectable=0;fillColor=none;top=0;left=0;bottom=0;right=0;align=left;spacingLeft=6;overflow=hidden;" vertex="1" parent="h7852Tr2tmxZigz9Xlth-64">
          <mxGeometry x="30" width="300" height="30" as="geometry" />
        </mxCell>
        <mxCell id="h7852Tr2tmxZigz9Xlth-67" value="" style="shape=partialRectangle;collapsible=0;dropTarget=0;pointerEvents=0;fillColor=none;top=0;left=0;bottom=0;right=0;points=[[0,0.5],[1,0.5]];portConstraint=eastwest;" vertex="1" parent="h7852Tr2tmxZigz9Xlth-1">
          <mxGeometry y="390" width="330" height="30" as="geometry" />
        </mxCell>
        <mxCell id="h7852Tr2tmxZigz9Xlth-68" value="" style="shape=partialRectangle;connectable=0;fillColor=none;top=0;left=0;bottom=0;right=0;editable=1;overflow=hidden;" vertex="1" parent="h7852Tr2tmxZigz9Xlth-67">
          <mxGeometry width="30" height="30" as="geometry" />
        </mxCell>
        <mxCell id="h7852Tr2tmxZigz9Xlth-69" value="Личный_телефон" style="shape=partialRectangle;connectable=0;fillColor=none;top=0;left=0;bottom=0;right=0;align=left;spacingLeft=6;overflow=hidden;" vertex="1" parent="h7852Tr2tmxZigz9Xlth-67">
          <mxGeometry x="30" width="300" height="30" as="geometry" />
        </mxCell>
        <mxCell id="h7852Tr2tmxZigz9Xlth-70" value="" style="shape=partialRectangle;collapsible=0;dropTarget=0;pointerEvents=0;fillColor=none;top=0;left=0;bottom=0;right=0;points=[[0,0.5],[1,0.5]];portConstraint=eastwest;" vertex="1" parent="h7852Tr2tmxZigz9Xlth-1">
          <mxGeometry y="420" width="330" height="30" as="geometry" />
        </mxCell>
        <mxCell id="h7852Tr2tmxZigz9Xlth-71" value="" style="shape=partialRectangle;connectable=0;fillColor=none;top=0;left=0;bottom=0;right=0;editable=1;overflow=hidden;" vertex="1" parent="h7852Tr2tmxZigz9Xlth-70">
          <mxGeometry width="30" height="30" as="geometry" />
        </mxCell>
        <mxCell id="h7852Tr2tmxZigz9Xlth-72" value="Домашний_телефон NULL" style="shape=partialRectangle;connectable=0;fillColor=none;top=0;left=0;bottom=0;right=0;align=left;spacingLeft=6;overflow=hidden;" vertex="1" parent="h7852Tr2tmxZigz9Xlth-70">
          <mxGeometry x="30" width="300" height="30" as="geometry" />
        </mxCell>
        <mxCell id="h7852Tr2tmxZigz9Xlth-73" value="" style="shape=partialRectangle;collapsible=0;dropTarget=0;pointerEvents=0;fillColor=none;top=0;left=0;bottom=0;right=0;points=[[0,0.5],[1,0.5]];portConstraint=eastwest;" vertex="1" parent="h7852Tr2tmxZigz9Xlth-1">
          <mxGeometry y="450" width="330" height="30" as="geometry" />
        </mxCell>
        <mxCell id="h7852Tr2tmxZigz9Xlth-74" value="" style="shape=partialRectangle;connectable=0;fillColor=none;top=0;left=0;bottom=0;right=0;editable=1;overflow=hidden;" vertex="1" parent="h7852Tr2tmxZigz9Xlth-73">
          <mxGeometry width="30" height="30" as="geometry" />
        </mxCell>
        <mxCell id="h7852Tr2tmxZigz9Xlth-75" value="Электронная_почта" style="shape=partialRectangle;connectable=0;fillColor=none;top=0;left=0;bottom=0;right=0;align=left;spacingLeft=6;overflow=hidden;" vertex="1" parent="h7852Tr2tmxZigz9Xlth-73">
          <mxGeometry x="30" width="300" height="30" as="geometry" />
        </mxCell>
        <mxCell id="h7852Tr2tmxZigz9Xlth-114" value="" style="shape=partialRectangle;collapsible=0;dropTarget=0;pointerEvents=0;fillColor=none;top=0;left=0;bottom=0;right=0;points=[[0,0.5],[1,0.5]];portConstraint=eastwest;" vertex="1" parent="h7852Tr2tmxZigz9Xlth-1">
          <mxGeometry y="480" width="330" height="30" as="geometry" />
        </mxCell>
        <mxCell id="h7852Tr2tmxZigz9Xlth-115" value="" style="shape=partialRectangle;connectable=0;fillColor=none;top=0;left=0;bottom=0;right=0;editable=1;overflow=hidden;" vertex="1" parent="h7852Tr2tmxZigz9Xlth-114">
          <mxGeometry width="30" height="30" as="geometry" />
        </mxCell>
        <mxCell id="h7852Tr2tmxZigz9Xlth-116" value="Код_основы" style="shape=partialRectangle;connectable=0;fillColor=none;top=0;left=0;bottom=0;right=0;align=left;spacingLeft=6;overflow=hidden;" vertex="1" parent="h7852Tr2tmxZigz9Xlth-114">
          <mxGeometry x="30" width="300" height="30" as="geometry" />
        </mxCell>
        <mxCell id="h7852Tr2tmxZigz9Xlth-76" value="" style="shape=partialRectangle;collapsible=0;dropTarget=0;pointerEvents=0;fillColor=none;top=0;left=0;bottom=0;right=0;points=[[0,0.5],[1,0.5]];portConstraint=eastwest;" vertex="1" parent="h7852Tr2tmxZigz9Xlth-1">
          <mxGeometry y="510" width="330" height="30" as="geometry" />
        </mxCell>
        <mxCell id="h7852Tr2tmxZigz9Xlth-77" value="" style="shape=partialRectangle;connectable=0;fillColor=none;top=0;left=0;bottom=0;right=0;editable=1;overflow=hidden;" vertex="1" parent="h7852Tr2tmxZigz9Xlth-76">
          <mxGeometry width="30" height="30" as="geometry" />
        </mxCell>
        <mxCell id="h7852Tr2tmxZigz9Xlth-78" value="О_себе" style="shape=partialRectangle;connectable=0;fillColor=none;top=0;left=0;bottom=0;right=0;align=left;spacingLeft=6;overflow=hidden;" vertex="1" parent="h7852Tr2tmxZigz9Xlth-76">
          <mxGeometry x="30" width="300" height="30" as="geometry" />
        </mxCell>
        <mxCell id="h7852Tr2tmxZigz9Xlth-131" value="" style="shape=partialRectangle;collapsible=0;dropTarget=0;pointerEvents=0;fillColor=none;top=0;left=0;bottom=0;right=0;points=[[0,0.5],[1,0.5]];portConstraint=eastwest;" vertex="1" parent="h7852Tr2tmxZigz9Xlth-1">
          <mxGeometry y="540" width="330" height="30" as="geometry" />
        </mxCell>
        <mxCell id="h7852Tr2tmxZigz9Xlth-132" value="" style="shape=partialRectangle;connectable=0;fillColor=none;top=0;left=0;bottom=0;right=0;editable=1;overflow=hidden;" vertex="1" parent="h7852Tr2tmxZigz9Xlth-131">
          <mxGeometry width="30" height="30" as="geometry" />
        </mxCell>
        <mxCell id="h7852Tr2tmxZigz9Xlth-133" value="Уровень_образования" style="shape=partialRectangle;connectable=0;fillColor=none;top=0;left=0;bottom=0;right=0;align=left;spacingLeft=6;overflow=hidden;" vertex="1" parent="h7852Tr2tmxZigz9Xlth-131">
          <mxGeometry x="30" width="300" height="30" as="geometry" />
        </mxCell>
        <mxCell id="h7852Tr2tmxZigz9Xlth-134" value="" style="shape=partialRectangle;collapsible=0;dropTarget=0;pointerEvents=0;fillColor=none;top=0;left=0;bottom=0;right=0;points=[[0,0.5],[1,0.5]];portConstraint=eastwest;" vertex="1" parent="h7852Tr2tmxZigz9Xlth-1">
          <mxGeometry y="570" width="330" height="30" as="geometry" />
        </mxCell>
        <mxCell id="h7852Tr2tmxZigz9Xlth-135" value="" style="shape=partialRectangle;connectable=0;fillColor=none;top=0;left=0;bottom=0;right=0;editable=1;overflow=hidden;" vertex="1" parent="h7852Tr2tmxZigz9Xlth-134">
          <mxGeometry width="30" height="30" as="geometry" />
        </mxCell>
        <mxCell id="h7852Tr2tmxZigz9Xlth-136" value="Номер_аттестата" style="shape=partialRectangle;connectable=0;fillColor=none;top=0;left=0;bottom=0;right=0;align=left;spacingLeft=6;overflow=hidden;" vertex="1" parent="h7852Tr2tmxZigz9Xlth-134">
          <mxGeometry x="30" width="300" height="30" as="geometry" />
        </mxCell>
        <mxCell id="h7852Tr2tmxZigz9Xlth-137" value="" style="shape=partialRectangle;collapsible=0;dropTarget=0;pointerEvents=0;fillColor=none;top=0;left=0;bottom=0;right=0;points=[[0,0.5],[1,0.5]];portConstraint=eastwest;" vertex="1" parent="h7852Tr2tmxZigz9Xlth-1">
          <mxGeometry y="600" width="330" height="30" as="geometry" />
        </mxCell>
        <mxCell id="h7852Tr2tmxZigz9Xlth-138" value="" style="shape=partialRectangle;connectable=0;fillColor=none;top=0;left=0;bottom=0;right=0;editable=1;overflow=hidden;" vertex="1" parent="h7852Tr2tmxZigz9Xlth-137">
          <mxGeometry width="30" height="30" as="geometry" />
        </mxCell>
        <mxCell id="h7852Tr2tmxZigz9Xlth-139" value="Английский_язык Bool" style="shape=partialRectangle;connectable=0;fillColor=none;top=0;left=0;bottom=0;right=0;align=left;spacingLeft=6;overflow=hidden;" vertex="1" parent="h7852Tr2tmxZigz9Xlth-137">
          <mxGeometry x="30" width="300" height="30" as="geometry" />
        </mxCell>
        <mxCell id="h7852Tr2tmxZigz9Xlth-140" value="" style="shape=partialRectangle;collapsible=0;dropTarget=0;pointerEvents=0;fillColor=none;top=0;left=0;bottom=0;right=0;points=[[0,0.5],[1,0.5]];portConstraint=eastwest;" vertex="1" parent="h7852Tr2tmxZigz9Xlth-1">
          <mxGeometry y="630" width="330" height="30" as="geometry" />
        </mxCell>
        <mxCell id="h7852Tr2tmxZigz9Xlth-141" value="" style="shape=partialRectangle;connectable=0;fillColor=none;top=0;left=0;bottom=0;right=0;editable=1;overflow=hidden;" vertex="1" parent="h7852Tr2tmxZigz9Xlth-140">
          <mxGeometry width="30" height="30" as="geometry" />
        </mxCell>
        <mxCell id="h7852Tr2tmxZigz9Xlth-142" value="Наличие_договора_о_целевом_обучении Bool" style="shape=partialRectangle;connectable=0;fillColor=none;top=0;left=0;bottom=0;right=0;align=left;spacingLeft=6;overflow=hidden;" vertex="1" parent="h7852Tr2tmxZigz9Xlth-140">
          <mxGeometry x="30" width="300" height="30" as="geometry" />
        </mxCell>
        <mxCell id="h7852Tr2tmxZigz9Xlth-143" value="" style="shape=partialRectangle;collapsible=0;dropTarget=0;pointerEvents=0;fillColor=none;top=0;left=0;bottom=0;right=0;points=[[0,0.5],[1,0.5]];portConstraint=eastwest;" vertex="1" parent="h7852Tr2tmxZigz9Xlth-1">
          <mxGeometry y="660" width="330" height="30" as="geometry" />
        </mxCell>
        <mxCell id="h7852Tr2tmxZigz9Xlth-144" value="" style="shape=partialRectangle;connectable=0;fillColor=none;top=0;left=0;bottom=0;right=0;editable=1;overflow=hidden;" vertex="1" parent="h7852Tr2tmxZigz9Xlth-143">
          <mxGeometry width="30" height="30" as="geometry" />
        </mxCell>
        <mxCell id="h7852Tr2tmxZigz9Xlth-145" value="Row" style="shape=partialRectangle;connectable=0;fillColor=none;top=0;left=0;bottom=0;right=0;align=left;spacingLeft=6;overflow=hidden;" vertex="1" parent="h7852Tr2tmxZigz9Xlth-143">
          <mxGeometry x="30" width="300" height="30" as="geometry" />
        </mxCell>
        <mxCell id="h7852Tr2tmxZigz9Xlth-37" value="Гражданство" style="shape=table;startSize=30;container=1;collapsible=1;childLayout=tableLayout;fixedRows=1;rowLines=0;fontStyle=1;align=center;resizeLast=1;" vertex="1" parent="1">
          <mxGeometry x="570" y="330" width="180" height="90" as="geometry" />
        </mxCell>
        <mxCell id="h7852Tr2tmxZigz9Xlth-38" value="" style="shape=partialRectangle;collapsible=0;dropTarget=0;pointerEvents=0;fillColor=none;top=0;left=0;bottom=1;right=0;points=[[0,0.5],[1,0.5]];portConstraint=eastwest;" vertex="1" parent="h7852Tr2tmxZigz9Xlth-37">
          <mxGeometry y="30" width="180" height="30" as="geometry" />
        </mxCell>
        <mxCell id="h7852Tr2tmxZigz9Xlth-39" value="PK" style="shape=partialRectangle;connectable=0;fillColor=none;top=0;left=0;bottom=0;right=0;fontStyle=1;overflow=hidden;" vertex="1" parent="h7852Tr2tmxZigz9Xlth-38">
          <mxGeometry width="30" height="30" as="geometry" />
        </mxCell>
        <mxCell id="h7852Tr2tmxZigz9Xlth-40" value="Код_гражданства" style="shape=partialRectangle;connectable=0;fillColor=none;top=0;left=0;bottom=0;right=0;align=left;spacingLeft=6;fontStyle=5;overflow=hidden;" vertex="1" parent="h7852Tr2tmxZigz9Xlth-38">
          <mxGeometry x="30" width="150" height="30" as="geometry" />
        </mxCell>
        <mxCell id="h7852Tr2tmxZigz9Xlth-41" value="" style="shape=partialRectangle;collapsible=0;dropTarget=0;pointerEvents=0;fillColor=none;top=0;left=0;bottom=0;right=0;points=[[0,0.5],[1,0.5]];portConstraint=eastwest;" vertex="1" parent="h7852Tr2tmxZigz9Xlth-37">
          <mxGeometry y="60" width="180" height="30" as="geometry" />
        </mxCell>
        <mxCell id="h7852Tr2tmxZigz9Xlth-42" value="" style="shape=partialRectangle;connectable=0;fillColor=none;top=0;left=0;bottom=0;right=0;editable=1;overflow=hidden;" vertex="1" parent="h7852Tr2tmxZigz9Xlth-41">
          <mxGeometry width="30" height="30" as="geometry" />
        </mxCell>
        <mxCell id="h7852Tr2tmxZigz9Xlth-43" value="Название_страны" style="shape=partialRectangle;connectable=0;fillColor=none;top=0;left=0;bottom=0;right=0;align=left;spacingLeft=6;overflow=hidden;" vertex="1" parent="h7852Tr2tmxZigz9Xlth-41">
          <mxGeometry x="30" width="150" height="30" as="geometry" />
        </mxCell>
        <mxCell id="h7852Tr2tmxZigz9Xlth-79" value="Специальность" style="shape=table;startSize=30;container=1;collapsible=1;childLayout=tableLayout;fixedRows=1;rowLines=0;fontStyle=1;align=center;resizeLast=1;" vertex="1" parent="1">
          <mxGeometry x="640" y="610" width="205" height="100" as="geometry" />
        </mxCell>
        <mxCell id="h7852Tr2tmxZigz9Xlth-80" value="" style="shape=partialRectangle;collapsible=0;dropTarget=0;pointerEvents=0;fillColor=none;top=0;left=0;bottom=1;right=0;points=[[0,0.5],[1,0.5]];portConstraint=eastwest;" vertex="1" parent="h7852Tr2tmxZigz9Xlth-79">
          <mxGeometry y="30" width="205" height="30" as="geometry" />
        </mxCell>
        <mxCell id="h7852Tr2tmxZigz9Xlth-81" value="PK" style="shape=partialRectangle;connectable=0;fillColor=none;top=0;left=0;bottom=0;right=0;fontStyle=1;overflow=hidden;" vertex="1" parent="h7852Tr2tmxZigz9Xlth-80">
          <mxGeometry width="30" height="30" as="geometry" />
        </mxCell>
        <mxCell id="h7852Tr2tmxZigz9Xlth-82" value="Код_специальности String" style="shape=partialRectangle;connectable=0;fillColor=none;top=0;left=0;bottom=0;right=0;align=left;spacingLeft=6;fontStyle=5;overflow=hidden;" vertex="1" parent="h7852Tr2tmxZigz9Xlth-80">
          <mxGeometry x="30" width="175" height="30" as="geometry" />
        </mxCell>
        <mxCell id="h7852Tr2tmxZigz9Xlth-83" value="" style="shape=partialRectangle;collapsible=0;dropTarget=0;pointerEvents=0;fillColor=none;top=0;left=0;bottom=0;right=0;points=[[0,0.5],[1,0.5]];portConstraint=eastwest;" vertex="1" parent="h7852Tr2tmxZigz9Xlth-79">
          <mxGeometry y="60" width="205" height="30" as="geometry" />
        </mxCell>
        <mxCell id="h7852Tr2tmxZigz9Xlth-84" value="" style="shape=partialRectangle;connectable=0;fillColor=none;top=0;left=0;bottom=0;right=0;editable=1;overflow=hidden;" vertex="1" parent="h7852Tr2tmxZigz9Xlth-83">
          <mxGeometry width="30" height="30" as="geometry" />
        </mxCell>
        <mxCell id="h7852Tr2tmxZigz9Xlth-85" value="Название_специальности" style="shape=partialRectangle;connectable=0;fillColor=none;top=0;left=0;bottom=0;right=0;align=left;spacingLeft=6;overflow=hidden;" vertex="1" parent="h7852Tr2tmxZigz9Xlth-83">
          <mxGeometry x="30" width="175" height="30" as="geometry" />
        </mxCell>
        <mxCell id="h7852Tr2tmxZigz9Xlth-96" value="Список_специальность" style="shape=table;startSize=30;container=1;collapsible=1;childLayout=tableLayout;fixedRows=1;rowLines=0;fontStyle=1;align=center;resizeLast=1;" vertex="1" parent="1">
          <mxGeometry x="400" y="790" width="180" height="100" as="geometry" />
        </mxCell>
        <mxCell id="h7852Tr2tmxZigz9Xlth-100" value="" style="shape=partialRectangle;collapsible=0;dropTarget=0;pointerEvents=0;fillColor=none;top=0;left=0;bottom=0;right=0;points=[[0,0.5],[1,0.5]];portConstraint=eastwest;" vertex="1" parent="h7852Tr2tmxZigz9Xlth-96">
          <mxGeometry y="30" width="180" height="30" as="geometry" />
        </mxCell>
        <mxCell id="h7852Tr2tmxZigz9Xlth-101" value="" style="shape=partialRectangle;connectable=0;fillColor=none;top=0;left=0;bottom=0;right=0;editable=1;overflow=hidden;" vertex="1" parent="h7852Tr2tmxZigz9Xlth-100">
          <mxGeometry width="30" height="30" as="geometry" />
        </mxCell>
        <mxCell id="h7852Tr2tmxZigz9Xlth-102" value="Код_абитуриента" style="shape=partialRectangle;connectable=0;fillColor=none;top=0;left=0;bottom=0;right=0;align=left;spacingLeft=6;overflow=hidden;" vertex="1" parent="h7852Tr2tmxZigz9Xlth-100">
          <mxGeometry x="30" width="150" height="30" as="geometry" />
        </mxCell>
        <mxCell id="h7852Tr2tmxZigz9Xlth-103" value="" style="shape=partialRectangle;collapsible=0;dropTarget=0;pointerEvents=0;fillColor=none;top=0;left=0;bottom=0;right=0;points=[[0,0.5],[1,0.5]];portConstraint=eastwest;" vertex="1" parent="h7852Tr2tmxZigz9Xlth-96">
          <mxGeometry y="60" width="180" height="30" as="geometry" />
        </mxCell>
        <mxCell id="h7852Tr2tmxZigz9Xlth-104" value="" style="shape=partialRectangle;connectable=0;fillColor=none;top=0;left=0;bottom=0;right=0;editable=1;overflow=hidden;" vertex="1" parent="h7852Tr2tmxZigz9Xlth-103">
          <mxGeometry width="30" height="30" as="geometry" />
        </mxCell>
        <mxCell id="h7852Tr2tmxZigz9Xlth-105" value="Код_специальности" style="shape=partialRectangle;connectable=0;fillColor=none;top=0;left=0;bottom=0;right=0;align=left;spacingLeft=6;overflow=hidden;" vertex="1" parent="h7852Tr2tmxZigz9Xlth-103">
          <mxGeometry x="30" width="150" height="30" as="geometry" />
        </mxCell>
        <mxCell id="h7852Tr2tmxZigz9Xlth-110" value="" style="edgeStyle=entityRelationEdgeStyle;fontSize=12;html=1;endArrow=ERoneToMany;exitX=1;exitY=0.5;exitDx=0;exitDy=0;" edge="1" parent="1" source="h7852Tr2tmxZigz9Xlth-34" target="h7852Tr2tmxZigz9Xlth-38">
          <mxGeometry width="100" height="100" relative="1" as="geometry">
            <mxPoint x="110" y="460" as="sourcePoint" />
            <mxPoint x="210" y="360" as="targetPoint" />
          </mxGeometry>
        </mxCell>
        <mxCell id="h7852Tr2tmxZigz9Xlth-111" value="" style="edgeStyle=entityRelationEdgeStyle;fontSize=12;html=1;endArrow=ERoneToMany;entryX=0;entryY=0.5;entryDx=0;entryDy=0;" edge="1" parent="1" source="h7852Tr2tmxZigz9Xlth-103" target="h7852Tr2tmxZigz9Xlth-80">
          <mxGeometry width="100" height="100" relative="1" as="geometry">
            <mxPoint x="160" y="900" as="sourcePoint" />
            <mxPoint x="260" y="800" as="targetPoint" />
          </mxGeometry>
        </mxCell>
        <mxCell id="h7852Tr2tmxZigz9Xlth-113" value="" style="edgeStyle=entityRelationEdgeStyle;fontSize=12;html=1;endArrow=ERoneToMany;entryX=1;entryY=0.5;entryDx=0;entryDy=0;exitX=0;exitY=0.5;exitDx=0;exitDy=0;" edge="1" parent="1" source="h7852Tr2tmxZigz9Xlth-100" target="h7852Tr2tmxZigz9Xlth-2">
          <mxGeometry width="100" height="100" relative="1" as="geometry">
            <mxPoint x="60" y="920" as="sourcePoint" />
            <mxPoint x="160" y="820" as="targetPoint" />
          </mxGeometry>
        </mxCell>
        <mxCell id="h7852Tr2tmxZigz9Xlth-117" value="Основа" style="shape=table;startSize=30;container=1;collapsible=1;childLayout=tableLayout;fixedRows=1;rowLines=0;fontStyle=1;align=center;resizeLast=1;" vertex="1" parent="1">
          <mxGeometry x="-250" y="600" width="180" height="100" as="geometry" />
        </mxCell>
        <mxCell id="h7852Tr2tmxZigz9Xlth-118" value="" style="shape=partialRectangle;collapsible=0;dropTarget=0;pointerEvents=0;fillColor=none;top=0;left=0;bottom=1;right=0;points=[[0,0.5],[1,0.5]];portConstraint=eastwest;" vertex="1" parent="h7852Tr2tmxZigz9Xlth-117">
          <mxGeometry y="30" width="180" height="30" as="geometry" />
        </mxCell>
        <mxCell id="h7852Tr2tmxZigz9Xlth-119" value="PK" style="shape=partialRectangle;connectable=0;fillColor=none;top=0;left=0;bottom=0;right=0;fontStyle=1;overflow=hidden;" vertex="1" parent="h7852Tr2tmxZigz9Xlth-118">
          <mxGeometry width="30" height="30" as="geometry" />
        </mxCell>
        <mxCell id="h7852Tr2tmxZigz9Xlth-120" value="Код_основы" style="shape=partialRectangle;connectable=0;fillColor=none;top=0;left=0;bottom=0;right=0;align=left;spacingLeft=6;fontStyle=5;overflow=hidden;" vertex="1" parent="h7852Tr2tmxZigz9Xlth-118">
          <mxGeometry x="30" width="150" height="30" as="geometry" />
        </mxCell>
        <mxCell id="h7852Tr2tmxZigz9Xlth-121" value="" style="shape=partialRectangle;collapsible=0;dropTarget=0;pointerEvents=0;fillColor=none;top=0;left=0;bottom=0;right=0;points=[[0,0.5],[1,0.5]];portConstraint=eastwest;" vertex="1" parent="h7852Tr2tmxZigz9Xlth-117">
          <mxGeometry y="60" width="180" height="30" as="geometry" />
        </mxCell>
        <mxCell id="h7852Tr2tmxZigz9Xlth-122" value="" style="shape=partialRectangle;connectable=0;fillColor=none;top=0;left=0;bottom=0;right=0;editable=1;overflow=hidden;" vertex="1" parent="h7852Tr2tmxZigz9Xlth-121">
          <mxGeometry width="30" height="30" as="geometry" />
        </mxCell>
        <mxCell id="h7852Tr2tmxZigz9Xlth-123" value="Название_основы" style="shape=partialRectangle;connectable=0;fillColor=none;top=0;left=0;bottom=0;right=0;align=left;spacingLeft=6;overflow=hidden;" vertex="1" parent="h7852Tr2tmxZigz9Xlth-121">
          <mxGeometry x="30" width="150" height="30" as="geometry" />
        </mxCell>
        <mxCell id="h7852Tr2tmxZigz9Xlth-130" value="" style="edgeStyle=entityRelationEdgeStyle;fontSize=12;html=1;endArrow=ERoneToMany;entryX=0;entryY=0.5;entryDx=0;entryDy=0;exitX=1;exitY=0.5;exitDx=0;exitDy=0;" edge="1" parent="1" source="h7852Tr2tmxZigz9Xlth-118" target="h7852Tr2tmxZigz9Xlth-114">
          <mxGeometry width="100" height="100" relative="1" as="geometry">
            <mxPoint x="-10" y="910" as="sourcePoint" />
            <mxPoint x="90" y="810" as="targetPoint" />
          </mxGeometry>
        </mxCell>
      </root>
    </mxGraphModel>
  </diagram>
</mxfile>
